#!OML:ASF X:\für Bonn\!DataBase\2005_08_12_Daniel\c3d\Daniel.ASF
:FULLY-SPECIFIED
:DEGREES
605
root 2.98386 18.707 -1.21764 -45.3101 -82.2763 43.4265
lowerback 7.33337 -2.96103 -5.6817
upperback -0.565615 -4.71171 -3.79274
thorax -4.57439 -2.27483 -0.24338
lowerneck 10.2445 2.75236 -2.56332
upperneck 0.394476 3.31277 1.20847
head -1.68593 1.58935 0.669672
rclavicle -2.06674e-014 5.56597e-015
rhumerus -41.9613 -43.2039 -14.884
rradius 23.5884
rwrist -56.2174
rhand -25.9971 10.9194
rfingers 7.12502
rthumb 0.548535 -19.0596
lclavicle -2.06674e-014 5.56597e-015
lhumerus -62.5989 47.7976 -0.2421
lradius 63.4038
lwrist 79.0762
lhand -21.2912 -0.542179
lfingers 7.12502
lthumb 5.09319 29.3766
rfemur -8.8888 3.69518 14.6766
rtibia 35.568
rfoot 8.4034 -2.90543
rtoes -5.56135
lfemur -12.0304 -15.7289 -20.427
ltibia 39.3628
lfoot 6.84219 2.85206
ltoes 1.2703
606
root 2.95748 18.9042 -1.22731 -47.1505 -82.2908 45.6763
lowerback 6.47517 -2.93887 -5.76571
upperback -0.83097 -4.64367 -3.9329
thorax -4.3761 -2.24608 -0.391928
lowerneck 10.8825 2.82128 -2.49729
upperneck 0.883172 3.37293 1.24928
head -1.63921 1.60524 0.663913
rclavicle -5.58212e-014 -7.95139e-015
rhumerus -38.2009 -42.8945 -14.4777
rradius 23.4582
rwrist -56.4983
rhand -26.4766 10.6894
rfingers 7.12502
rthumb 0.0854217 -19.2903
lclavicle -5.58212e-014 -7.95139e-015
lhumerus -57.6659 47.3617 -0.508706
lradius 62.3082
lwrist 79.2457
lhand -20.5047 -0.933826
lfingers 7.12502
lthumb 5.8526 28.9653
rfemur -8.82142 3.84423 13.8439
rtibia 35.028
rfoot 8.69553 -4.49643
rtoes -7.72543
lfemur -12.0308 -16.1672 -20.0033
ltibia 38.4277
lfoot 8.23202 2.79597
ltoes 0.742592
607
root 2.93405 19.0867 -1.2361 -48.6184 -82.3076 47.4519
lowerback 5.77203 -2.92484 -5.78728
upperback -1.11326 -4.59438 -4.05324
thorax -4.2847 -2.22494 -0.541964
lowerneck 11.6165 2.89229 -2.42054
upperneck 1.31202 3.43282 1.2842
head -1.62822 1.62016 0.653044
rclavicle 6.23687e-015 3.4191e-014
rhumerus -34.2783 -42.2864 -14.2291
rradius 23.4826
rwrist -56.9994
rhand -26.9907 10.5524
rfingers 7.12502
rthumb -0.411116 -19.427
lclavicle 6.23687e-015 3.4191e-014
lhumerus -51.9193 46.726 -0.63857
lradius 60.4558
lwrist 79.3158
lhand -20.0348 -1.10587
lfingers 7.12502
lthumb 6.30618 28.7803
rfemur -8.71828 3.9053 13.0622
rtibia 34.6739
rfoot 8.73073 -5.9668
rtoes -10.4766
lfemur -11.9077 -16.6842 -19.5522
ltibia 37.5596
lfoot 9.10962 3.10647
ltoes 0.336183
608
root 2.91491 19.2453 -1.24423 -49.8883 -82.3226 48.9565
lowerback 5.16551 -2.91515 -5.77019
upperback -1.3843 -4.55675 -4.17765
thorax -4.23844 -2.21013 -0.710625
lowerneck 12.3703 2.95173 -2.26027
upperneck 1.70789 3.48653 1.27883
head -1.62793 1.63276 0.614844
rclavicle -1.05356e-014 -6.36111e-015
rhumerus -30.2245 -41.2325 -14.2088
rradius 23.6512
rwrist -57.867
rhand -27.4532 10.6987
rfingers 7.12502
rthumb -0.857829 -19.2794
lclavicle -1.05356e-014 -6.36111e-015
lhumerus -45.5029 46.1004 -0.750542
lradius 57.9962
lwrist 79.2668
lhand -19.9055 -0.980085
lfingers 7.12502
lthumb 6.43109 28.9023
rfemur -8.63628 3.90115 12.2956
rtibia 34.4789
rfoot 8.69378 -7.44657
rtoes -12.9047
lfemur -11.7214 -17.1632 -19.0719
ltibia 36.7784
lfoot 9.56382 3.79312
ltoes 0.481543
609
root 2.89741 19.3851 -1.25236 -50.947 -82.3723 50.1514
lowerback 4.67677 -2.89809 -5.71106
upperback -1.64456 -4.51393 -4.26352
thorax -4.24694 -2.19179 -0.856132
lowerneck 13.108 3.00497 -2.10619
upperneck 2.1089 3.53075 1.24528
head -1.6216 1.6409 0.569302
rclavicle 3.96078e-014 7.31528e-014
rhumerus -26.214 -40.0436 -14.1262
rradius 23.9847
rwrist -58.615
rhand -27.7753 10.8971
rfingers 7.12502
rthumb -1.16886 -19.0794
lclavicle 3.96078e-014 7.31528e-014
lhumerus -38.8783 45.6406 -0.85286
lradius 55.3043
lwrist 78.9144
lhand -20.09 -0.536243
lfingers 7.12502
lthumb 6.25289 29.3515
rfemur -8.50631 3.87208 11.5757
rtibia 34.3683
rfoot 8.6737 -8.88856
rtoes -14.6413
lfemur -11.4123 -17.5459 -18.5578
ltibia 36.1038
lfoot 9.59379 4.74656
ltoes 0.406135
610
root 2.88085 19.5071 -1.26033 -51.8419 -82.4112 51.0431
lowerback 4.32888 -2.88673 -5.63178
upperback -1.85949 -4.4868 -4.3435
thorax -4.28804 -2.18142 -0.998451
lowerneck 13.7995 3.05968 -1.97694
upperneck 2.4983 3.57535 1.21162
head -1.61077 1.64929 0.528285
rclavicle -3.44891e-014 9.54166e-015
rhumerus -22.2854 -39.047 -13.9186
rradius 24.427
rwrist -58.9529
rhand -27.8739 11.0006
rfingers 7.12502
rthumb -1.26414 -18.9754
lclavicle -3.44891e-014 9.54166e-015
lhumerus -32.4203 45.3322 -0.922688
lradius 52.7033
lwrist 78.4091
lhand -20.4104 -0.0378199
lfingers 7.12502
lthumb 5.94357 29.8588
rfemur -8.18464 3.84449 10.8764
rtibia 34.2634
rfoot 8.56665 -10.3157
rtoes -15.1115
lfemur -10.9554 -18.0005 -18.0795
ltibia 35.5452
lfoot 9.16407 5.95526
ltoes -0.192492
